<?xml version="1.0" encoding="UTF-8" ?>
<svg xmlns="http://www.w3.org/2000/svg"
     version="1.1"
     viewBox="0 0 112.196 112.196">
  <g style="fill:#fff">
    <path d="M 56.097656 0 A 56.098 56.098 0 0 0 0 56.097656 A 56.098 56.098 0 0 0 56.097656 112.19531 A 56.098 56.098 0 0 0 112.19531 56.097656 A 56.098 56.098 0 0 0 56.097656 0 z M 34.65625 23.96875 C 39.24425 23.96875 42.063344 26.979547 42.152344 30.935547 C 42.152344 34.807547 39.243406 37.90625 34.566406 37.90625 L 34.480469 37.90625 C 29.982469 37.90625 27.068359 34.807547 27.068359 30.935547 C 27.068359 26.979547 30.06925 23.96875 34.65625 23.96875 z M 74.179688 42.462891 C 83.001687 42.462891 89.615234 48.226328 89.615234 60.611328 L 89.615234 83.738281 L 76.207031 83.738281 L 76.207031 62.160156 C 76.207031 56.742156 74.271016 53.042969 69.416016 53.042969 C 65.711016 53.042969 63.509109 55.533313 62.537109 57.945312 C 62.184109 58.807313 62.09375 60.005844 62.09375 61.214844 L 62.09375 83.738281 L 48.683594 83.738281 C 48.683594 83.738281 48.863594 47.191203 48.683594 43.408203 L 62.095703 43.408203 L 62.095703 49.123047 C 63.877703 46.381047 67.054688 42.462891 74.179688 42.462891 z M 62.095703 49.123047 C 62.068703 49.168047 62.029859 49.212859 62.005859 49.255859 L 62.095703 49.255859 L 62.095703 49.123047 z M 27.865234 43.408203 L 41.269531 43.408203 L 41.269531 83.738281 L 27.865234 83.738281 L 27.865234 43.408203 z " />
  </g>
</svg>
